<svg width="512" height="512" viewBox="0 0 512 512" xmlns="http://www.w3.org/2000/svg">
  <defs>
    <linearGradient id="g" x1="120" y1="120" x2="392" y2="400" gradientUnits="userSpaceOnUse">
      <stop offset="0" stop-color="#818CF8"/>
      <stop offset="1" stop-color="#22D3EE"/>
    </linearGradient>
    <radialGradient id="bg" cx="50%" cy="34%" r="75%">
      <stop offset="0" stop-color="#161d29"/>
      <stop offset="1" stop-color="#0A0D13"/>
    </radialGradient>
    <filter id="glow" x="-40%" y="-40%" width="180%" height="180%">
      <feGaussianBlur stdDeviation="7" result="b"/>
      <feMerge>
        <feMergeNode in="b"/>
        <feMergeNode in="SourceGraphic"/>
      </feMerge>
    </filter>
  </defs>

  <rect width="512" height="512" rx="112" fill="url(#bg)"/>

  <g filter="url(#glow)" stroke="url(#g)" stroke-width="6" stroke-linecap="round" fill="none" opacity="0.9">
    <!-- conexoes -->
    <path d="M256 148 L182 208 M256 148 L330 208 M256 148 L256 268"/>
    <path d="M182 208 L150 300 M330 208 L362 300"/>
    <path d="M182 208 L256 268 M330 208 L256 268"/>
    <path d="M150 300 L256 268 M362 300 L256 268"/>
    <path d="M150 300 L200 366 M362 300 L312 366"/>
    <path d="M256 268 L200 366 M256 268 L312 366"/>
    <path d="M200 366 L256 402 M312 366 L256 402"/>
  </g>

  <g fill="url(#g)" filter="url(#glow)">
    <!-- nos -->
    <circle cx="256" cy="148" r="17"/>
    <circle cx="182" cy="208" r="14"/>
    <circle cx="330" cy="208" r="14"/>
    <circle cx="150" cy="300" r="13"/>
    <circle cx="256" cy="268" r="20"/>
    <circle cx="362" cy="300" r="13"/>
    <circle cx="200" cy="366" r="14"/>
    <circle cx="312" cy="366" r="14"/>
    <circle cx="256" cy="402" r="16"/>
  </g>
</svg>
